# xmcd CD database file
#
# Track frame offsets:
#	150
#	61860
#	87975
#	156792
#	177650
#
# Disc length: 3404 seconds
#
# Revision: 0
# Processed by: cddbd v1.5.1PL0 Copyright (c) Steve Scherf et al.
# Submitted via: CDex 1.51
#
DISCID=3a0d4a05
DTITLE=Miles Davis - Miles&Coltrane
DYEAR=1960
DGENRE=Jazz
TTITLE0=On Green Dolphin Street
TTITLE1=Godchild
TTITLE2=So What
TTITLE3=Move
TTITLE4=Walkin'/The Theme
EXTD=YEAR: 1960
EXTT0=
EXTT1=
EXTT2=
EXTT3=
EXTT4=
PLAYORDER=
